<mxfile host="app.diagrams.net" modified="2022-07-26T10:01:47.536Z" agent="5.0 (X11; Linux x86_64) AppleWebKit/537.36 (KHTML, like Gecko) Chrome/102.0.0.0 Safari/537.36" etag="IgFUD9w59dHI7Wxejj-S" version="20.2.0" type="github">
  <diagram id="ZB067W3fi-OG0RZX4ruG" name="Page-1">
    <mxGraphModel dx="1038" dy="587" grid="1" gridSize="10" guides="1" tooltips="1" connect="1" arrows="1" fold="1" page="1" pageScale="1" pageWidth="850" pageHeight="1100" math="0" shadow="0">
      <root>
        <mxCell id="0" />
        <mxCell id="1" parent="0" />
        <mxCell id="K0b4yNtIqu9R4qsapTuJ-1" value="fmsDiagObject_type" style="html=1;overflow=block;blockSpacing=1;swimlane;childLayout=stackLayout;horizontal=1;horizontalStack=0;resizeParent=1;resizeParentMax=0;resizeLast=0;collapsible=0;fontStyle=0;marginBottom=0;swimlaneFillColor=#ffffff;startSize=25;whiteSpace=wrap;fontSize=16.7;fontColor=#3a414a;align=left;spacing=0;strokeColor=#3a414a;strokeOpacity=100;rounded=1;absoluteArcSize=1;arcSize=9;strokeWidth=0.8;" vertex="1" parent="1">
          <mxGeometry x="1165" y="30" width="615" height="488.25" as="geometry" />
        </mxCell>
        <mxCell id="K0b4yNtIqu9R4qsapTuJ-2" value="baseDate&#xa;character :: experiment_name&#xa;type(fmsDiagFiles_type) :: diag_files (:)&#xa;type(fmsDiagSubregionFiles_type) :: diag_subregion_files (:)&#xa;type(fmsDiagDiurnalFiles_type) :: diag_diurnal_files (:)&#xa;type(fmsDIagVars_type) :: diag_vars (:)&#xa;type(fmsDiagBuffer_type) :: diag_buffers(:) &#xa;type(fmsDiagAxis_type) :: diag_axis(:)" style="part=1;html=1;resizeHeight=0;strokeColor=none;fillColor=none;align=left;verticalAlign=middle;spacingLeft=4;spacingRight=4;overflow=hidden;rotatable=0;points=[[0,0.5],[1,0.5]];portConstraint=eastwest;swimlaneFillColor=#ffffff;strokeOpacity=100;whiteSpace=wrap;fontSize=16.7;fontColor=#3a414a;" vertex="1" parent="K0b4yNtIqu9R4qsapTuJ-1">
          <mxGeometry y="25" width="615" height="185" as="geometry" />
        </mxCell>
        <mxCell id="K0b4yNtIqu9R4qsapTuJ-3" value="" style="line;strokeWidth=1;fillColor=none;align=left;verticalAlign=middle;spacingTop=-1;spacingLeft=3;spacingRight=3;rotatable=0;labelPosition=right;points=[];portConstraint=eastwest;" vertex="1" parent="K0b4yNtIqu9R4qsapTuJ-1">
          <mxGeometry y="210" width="615" height="8" as="geometry" />
        </mxCell>
        <mxCell id="K0b4yNtIqu9R4qsapTuJ-4" value="diag_manager_init ()&lt;br&gt;diag_axis_init ()&lt;br&gt;register_daig_field(...)&lt;br&gt;send_data (id, buffer,...)&lt;br&gt;diag_manager_end ()&lt;br&gt;&lt;br&gt;get_basedate()&lt;br&gt;get_experiment_name()&lt;br&gt;get_diag_file (fileID)&lt;br&gt;get_diag_var (varID)&lt;br&gt;get_diag_buffer (bufferID)&lt;br&gt;fms_diag_write_files ()&lt;br&gt;diag_object_end ()" style="part=1;html=1;resizeHeight=0;strokeColor=none;fillColor=none;align=left;verticalAlign=middle;spacingLeft=4;spacingRight=4;overflow=hidden;rotatable=0;points=[[0,0.5],[1,0.5]];portConstraint=eastwest;swimlaneFillColor=#ffffff;strokeOpacity=100;whiteSpace=wrap;fontSize=16.7;fontColor=#3a414a;" vertex="1" parent="K0b4yNtIqu9R4qsapTuJ-1">
          <mxGeometry y="218" width="615" height="270.25" as="geometry" />
        </mxCell>
        <mxCell id="K0b4yNtIqu9R4qsapTuJ-5" value="fmsDiagFiles_type" style="html=1;overflow=block;blockSpacing=1;swimlane;childLayout=stackLayout;horizontal=1;horizontalStack=0;resizeParent=1;resizeParentMax=0;resizeLast=0;collapsible=0;fontStyle=0;marginBottom=0;swimlaneFillColor=#ffffff;startSize=25;whiteSpace=wrap;fontSize=16.7;fontColor=#3a414a;align=left;spacing=0;strokeColor=#3a414a;strokeOpacity=100;rounded=1;absoluteArcSize=1;arcSize=9;strokeWidth=0.8;" vertex="1" parent="1">
          <mxGeometry x="85" y="615" width="450" height="610" as="geometry" />
        </mxCell>
        <mxCell id="K0b4yNtIqu9R4qsapTuJ-6" value="&lt;div style=&quot;display: flex; justify-content: flex-start; text-align: left; align-items: baseline; font-size: 0; line-height: 1.25;margin-top: -2px;&quot;&gt;&lt;span&gt;&lt;span style=&quot;font-size:18.3px;color:#24292f;&quot;&gt;integer :: id &lt;/span&gt;&lt;span style=&quot;font-size:18.3px;color:#24292f;&quot;&gt; &lt;/span&gt;&lt;span style=&quot;font-size:18.3px;color:#24292f;&quot;&gt;  &#xa;&lt;/span&gt;&lt;/span&gt;&lt;/div&gt;&lt;div style=&quot;display: flex; justify-content: flex-start; text-align: left; align-items: baseline; font-size: 0; line-height: 1.25;margin-top: -2px;&quot;&gt;&lt;span&gt;&lt;span style=&quot;font-size:18.3px;color:#24292f;&quot;&gt;class(FmsNetcdfFile_t), allocatable :: fileobj &lt;/span&gt;&lt;span style=&quot;font-size:18.3px;color:#24292f;&quot;&gt; &lt;/span&gt;&lt;span style=&quot;font-size:18.3px;color:#24292f;&quot;&gt;  type(diagYamlFiles_type), pointer :: diag_yaml_file   &#xa;&lt;/span&gt;&lt;/span&gt;&lt;/div&gt;&lt;div style=&quot;display: flex; justify-content: flex-start; text-align: left; align-items: baseline; font-size: 0; line-height: 1.25;margin-top: -2px;&quot;&gt;&lt;span&gt;&lt;span style=&quot;font-size:18.3px;color:#24292f;&quot;&gt;integer :: type_of_domain &lt;/span&gt;&lt;span style=&quot;font-size:18.3px;color:#24292f;&quot;&gt; &lt;/span&gt;&lt;span style=&quot;font-size:18.3px;color:#24292f;&quot;&gt;  &#xa;&lt;/span&gt;&lt;/span&gt;&lt;/div&gt;&lt;div style=&quot;display: flex; justify-content: flex-start; text-align: left; align-items: baseline; font-size: 0; line-height: 1.25;margin-top: -2px;&quot;&gt;&lt;span&gt;&lt;span style=&quot;font-size:18.3px;color:#24292f;&quot;&gt;class(diagDomain_t), pointer :: domain &lt;/span&gt;&lt;span style=&quot;font-size:18.3px;color:#24292f;&quot;&gt; &lt;/span&gt;&lt;span style=&quot;font-size:18.3px;color:#24292f;&quot;&gt;  &#xa;&lt;/span&gt;&lt;/span&gt;&lt;/div&gt;&lt;div style=&quot;display: flex; justify-content: flex-start; text-align: left; align-items: baseline; font-size: 0; line-height: 1.25;margin-top: -2px;&quot;&gt;&lt;span&gt;&lt;span style=&quot;font-size:18.3px;color:#24292f;&quot;&gt;character(len=:) :: file_metadata_from_model (:)&lt;/span&gt;&lt;span style=&quot;font-size:18.3px;color:#24292f;&quot;&gt; &lt;/span&gt;&lt;span style=&quot;font-size:18.3px;color:#24292f;&quot;&gt;  &#xa;&lt;/span&gt;&lt;/span&gt;&lt;/div&gt;&lt;div style=&quot;display: flex; justify-content: flex-start; text-align: left; align-items: baseline; font-size: 0; line-height: 1.25;margin-top: -2px;&quot;&gt;&lt;span&gt;&lt;span style=&quot;font-size:18.3px;color:#24292f;&quot;&gt;integer, dimension(:), allocatable :: var_ids&#xa;&lt;/span&gt;&lt;/span&gt;&lt;/div&gt;&lt;div style=&quot;display: flex; justify-content: flex-start; text-align: left; align-items: baseline; font-size: 0; line-height: 1.25;margin-top: -2px;&quot;&gt;&lt;span&gt;&lt;span style=&quot;font-size:18.3px;color:#24292f;&quot;&gt;!!!!! &lt;/span&gt;&lt;span style=&quot;font-size:18.3px;color:#000000;&quot;&gt;dimension and id&#xa;&lt;/span&gt;&lt;/span&gt;&lt;/div&gt;&lt;div style=&quot;display: flex; justify-content: flex-start; text-align: left; align-items: baseline; font-size: 0; line-height: 1.25;margin-top: -2px;&quot;&gt;&lt;span&gt;&lt;span style=&quot;font-size:18.3px;&quot;&gt;&lt;span style=&quot;font-size:18.3px;color:#24292f;&quot;&gt;integer, dimension(:,:), allocatable :: buffer_ids &lt;/span&gt;&lt;span style=&quot;font-size:18.3px;color:#24292f;&quot;&gt; &lt;/span&gt;&lt;span style=&quot;font-size:18.3px;color:#24292f;&quot;&gt;  &#xa;&lt;/span&gt;&lt;/span&gt;&lt;/span&gt;&lt;/div&gt;&lt;div style=&quot;display: flex; justify-content: flex-start; text-align: left; align-items: baseline; font-size: 0; line-height: 1.25;margin-top: -2px;&quot;&gt;&lt;span&gt;&lt;span style=&quot;font-size:18.3px;color:#24292f;&quot;&gt;integer, dimension(:), private, allocatable :: var_index&lt;/span&gt;&lt;span style=&quot;font-size:18.3px;color:#24292f;&quot;&gt;&#xa;&lt;/span&gt;&lt;/span&gt;&lt;/div&gt;&lt;div style=&quot;display: flex; justify-content: flex-start; text-align: left; align-items: baseline; font-size: 0; line-height: 1.25;margin-top: -2px;&quot;&gt;&lt;span&gt;&lt;span style=&quot;font-size:18.3px;color:#24292f;&quot;&gt;&lt;span style=&quot;font-size:18.3px;color:#24292f;&quot;&gt;logical, dimension(:), private, allocatable :: var_reg&lt;/span&gt;&#xa;&lt;/span&gt;&lt;/span&gt;&lt;/div&gt;&lt;div style=&quot;display: flex; justify-content: flex-start; text-align: left; align-items: baseline; font-size: 0; line-height: 1.25;margin-top: -2px;&quot;&gt;&lt;span&gt;&lt;span style=&quot;font-size:18.3px;color:#24292f;&quot;&gt;&lt;span style=&quot;font-size:18.3px;color:#24292f;&quot;&gt;integer, dimension(:), allocatable :: axis_ids &lt;/span&gt;&lt;span style=&quot;font-size:18.3px;color:#24292f;&quot;&gt; &lt;/span&gt;&lt;span style=&quot;font-size:18.3px;color:#24292f;&quot;&gt;  &#xa;&lt;/span&gt;&lt;/span&gt;&lt;/span&gt;&lt;/div&gt;&lt;div style=&quot;display: flex; justify-content: flex-start; text-align: left; align-items: baseline; font-size: 0; line-height: 1.25;margin-top: -2px;&quot;&gt;&lt;span&gt;&lt;span style=&quot;font-size:18.3px;color:#24292f;&quot;&gt;integer, dimension(:), allocatable :: sub_axis_ids &#xa;&lt;/span&gt;&lt;/span&gt;&lt;/div&gt;&lt;div style=&quot;display: flex; justify-content: flex-start; text-align: left; align-items: baseline; font-size: 0; line-height: 1.25;margin-top: -2px;&quot;&gt;&lt;span&gt;&lt;span style=&quot;font-size:18.3px;color:#24292f;&quot;&gt;integer :: number_of_axis&lt;/span&gt;&lt;span style=&quot;font-size:18.3px;color:#24292f;&quot;&gt; &lt;/span&gt;&lt;span style=&quot;font-size:18.3px;color:#000000;&quot;&gt;&#xa;&lt;/span&gt;&lt;/span&gt;&lt;/div&gt;&lt;div style=&quot;display: flex; justify-content: flex-start; text-align: left; align-items: baseline; font-size: 0; line-height: 1.25;margin-top: -2px;&quot;&gt;&lt;span&gt;&lt;span style=&quot;font-size:18.3px;color:#000000;&quot;&gt;current time&#xa;&lt;/span&gt;&lt;/span&gt;&lt;/div&gt;&lt;div style=&quot;display: flex; justify-content: flex-start; text-align: left; align-items: baseline; font-size: 0; line-height: 1.25;margin-top: -2px;&quot;&gt;&lt;span&gt;&lt;span style=&quot;font-size:18.3px;color:#000000;&quot;&gt;last write&#xa;&lt;/span&gt;&lt;/span&gt;&lt;/div&gt;&lt;div style=&quot;display: flex; justify-content: flex-start; text-align: left; align-items: baseline; font-size: 0; line-height: 1.25;margin-top: -2px;&quot;&gt;&lt;span&gt;&lt;span style=&quot;font-size:18.3px;color:#000000;&quot;&gt;next write&lt;/span&gt;&lt;span style=&quot;font-size:16px;color:#000000;&quot;&gt;&#xa;&lt;/span&gt;&lt;/span&gt;&lt;/div&gt;&lt;div style=&quot;display: flex; justify-content: flex-start; text-align: left; align-items: baseline; font-size: 0; line-height: 1.25;margin-top: -2px;&quot;&gt;&lt;span&gt;&lt;span style=&quot;font-size:16px;color:#000000;&quot;&gt;type(fmsDiagOutputYaml) :: output_yaml&lt;/span&gt;&lt;/span&gt;&lt;/div&gt;" style="part=1;html=1;resizeHeight=0;strokeColor=none;fillColor=none;verticalAlign=middle;spacingLeft=4;spacingRight=4;overflow=hidden;rotatable=0;points=[[0,0.5],[1,0.5]];portConstraint=eastwest;swimlaneFillColor=#ffffff;strokeOpacity=100;whiteSpace=wrap;fontSize=18.3;fontColor=#24292f;align=left;" vertex="1" parent="K0b4yNtIqu9R4qsapTuJ-5">
          <mxGeometry y="25" width="450" height="405" as="geometry" />
        </mxCell>
        <mxCell id="K0b4yNtIqu9R4qsapTuJ-7" value="" style="line;strokeWidth=1;fillColor=none;align=left;verticalAlign=middle;spacingTop=-1;spacingLeft=3;spacingRight=3;rotatable=0;labelPosition=right;points=[];portConstraint=eastwest;" vertex="1" parent="K0b4yNtIqu9R4qsapTuJ-5">
          <mxGeometry y="430" width="450" height="8" as="geometry" />
        </mxCell>
        <mxCell id="K0b4yNtIqu9R4qsapTuJ-8" value="get/has()&#xa;diag_register_variable_to_file(varID)&#xa;diag_register_buffer_to_file(bufferID)&#xa;diag_file_open()&#xa;diag_file_close()&#xa;is_it_time_to_write()&#xa;diag_file_write()" style="part=1;resizeHeight=0;strokeColor=none;fillColor=none;align=left;verticalAlign=middle;spacingLeft=4;spacingRight=4;rotatable=0;points=[[0,0.5],[1,0.5]];portConstraint=eastwest;swimlaneFillColor=#ffffff;strokeOpacity=100;whiteSpace=wrap;overflow=block;blockSpacing=1;html=1;fontSize=13;" vertex="1" parent="K0b4yNtIqu9R4qsapTuJ-5">
          <mxGeometry y="438" width="450" height="172" as="geometry" />
        </mxCell>
        <UserObject label="" lucidchartObjectId="lq7ztnk.IFCw" id="K0b4yNtIqu9R4qsapTuJ-9">
          <mxCell style="html=1;jettySize=18;whiteSpace=wrap;fontSize=13;strokeColor=#3a414a;strokeOpacity=100;strokeWidth=0.8;rounded=1;arcSize=12;edgeStyle=orthogonalEdgeStyle;startArrow=block;startFill=1;endArrow=none;exitX=0.5;exitY=-0.001;exitPerimeter=0;entryX=0.5;entryY=1;entryPerimeter=0;" edge="1" parent="1" source="K0b4yNtIqu9R4qsapTuJ-48" target="K0b4yNtIqu9R4qsapTuJ-5">
            <mxGeometry width="100" height="100" relative="1" as="geometry">
              <Array as="points" />
            </mxGeometry>
          </mxCell>
        </UserObject>
        <UserObject label="" lucidchartObjectId="Mq7zZ61w4KJI" id="K0b4yNtIqu9R4qsapTuJ-10">
          <mxCell style="html=1;jettySize=18;whiteSpace=wrap;fontSize=13;strokeColor=#3a414a;strokeOpacity=100;strokeWidth=0.8;rounded=1;arcSize=12;edgeStyle=orthogonalEdgeStyle;startArrow=none;endArrow=block;endFill=1;exitX=0.5;exitY=1;exitPerimeter=0;entryX=0.5;entryY=-0.003;entryPerimeter=0;" edge="1" parent="1" source="K0b4yNtIqu9R4qsapTuJ-5" target="K0b4yNtIqu9R4qsapTuJ-53">
            <mxGeometry width="100" height="100" relative="1" as="geometry">
              <Array as="points" />
            </mxGeometry>
          </mxCell>
        </UserObject>
        <mxCell id="K0b4yNtIqu9R4qsapTuJ-11" value="fmsDiagVariable_type" style="html=1;overflow=block;blockSpacing=1;swimlane;childLayout=stackLayout;horizontal=1;horizontalStack=0;resizeParent=1;resizeParentMax=0;resizeLast=0;collapsible=0;fontStyle=0;marginBottom=0;swimlaneFillColor=#ffffff;startSize=25;whiteSpace=wrap;fontSize=16.7;fontColor=#3a414a;align=left;spacing=0;strokeColor=#3a414a;strokeOpacity=100;rounded=1;absoluteArcSize=1;arcSize=9;strokeWidth=0.8;" vertex="1" parent="1">
          <mxGeometry x="730" y="615" width="630" height="750" as="geometry" />
        </mxCell>
        <mxCell id="K0b4yNtIqu9R4qsapTuJ-12" value="&lt;div style=&quot;display: flex; justify-content: flex-start; text-align: left; align-items: baseline; font-size: 0; line-height: 1.25;margin-top: -2px;&quot;&gt;&lt;span&gt;&lt;span style=&quot;font-weight: normal; font-style: normal;&quot;&gt;&lt;span style=&quot;font-size:18.3px;color:#24292f;&quot;&gt;type (diagYamlFilesVar_type), pointer :: diag_var &lt;/span&gt;&lt;span style=&quot;font-size:18.3px;color:#24292f;&quot;&gt; &lt;/span&gt;&lt;span style=&quot;font-size:18.3px;color:#24292f;&quot;&gt;     &lt;br&gt;&lt;/span&gt;&lt;/span&gt;&lt;/span&gt;&lt;/div&gt;&lt;div style=&quot;display: flex; justify-content: flex-start; text-align: left; align-items: baseline; font-size: 0; line-height: 1.25;margin-top: -2px;&quot;&gt;&lt;span&gt;&lt;span style=&quot;font-weight: normal; font-style: normal;&quot;&gt;&lt;span style=&quot;font-size:18.3px;color:#24292f;&quot;&gt;integer, allocatable, private                    :: var_id&lt;/span&gt;&lt;span style=&quot;font-size:18.3px;color:#24292f;&quot;&gt;&lt;br&gt;&lt;/span&gt;&lt;/span&gt;&lt;/span&gt;&lt;/div&gt;&lt;div style=&quot;display: flex; justify-content: flex-start; text-align: left; align-items: baseline; font-size: 0; line-height: 1.25;margin-top: -2px;&quot;&gt;&lt;span&gt;&lt;span style=&quot;font-size:18.3px;color:#24292f;&quot;&gt;&lt;span style=&quot;font-size:18.3px;color:#24292f;&quot;&gt;&lt;span style=&quot;font-weight: normal; font-style: normal;&quot;&gt;character(len=:), allocatable, dimension(:)      :: metadat&lt;/span&gt;&lt;span style=&quot;font-style: normal; font-weight: normal;&quot;&gt;a&lt;/span&gt;&lt;/span&gt;&lt;span style=&quot;font-size:18.3px;color:#24292f;&quot;&gt; &lt;/span&gt;&lt;span style=&quot;font-size:18.3px;color:#24292f;&quot;&gt;    &lt;br&gt;&lt;/span&gt;&lt;/span&gt;&lt;/span&gt;&lt;/div&gt;&lt;div style=&quot;display: flex; justify-content: flex-start; text-align: left; align-items: baseline; font-size: 0; line-height: 1.25;margin-top: -2px;&quot;&gt;&lt;span&gt;&lt;span style=&quot;font-size: 18.3px; color: rgb(36, 41, 47); font-style: normal; font-weight: normal;&quot;&gt;&lt;span style=&quot;font-size: 18.3px; color: rgb(36, 41, 47);&quot;&gt;  logical, allocatable, private                    :: static     &lt;/span&gt;&lt;span style=&quot;font-size:18.3px;color:#24292f;&quot;&gt;&lt;br&gt;&lt;/span&gt;&lt;/span&gt;&lt;/span&gt;&lt;/div&gt;&lt;div style=&quot;display: flex; justify-content: flex-start; text-align: left; align-items: baseline; font-size: 0; line-height: 1.25;margin-top: -2px;&quot;&gt;&lt;span&gt;&lt;span style=&quot;font-weight: normal; font-style: normal;&quot;&gt;&lt;span style=&quot;font-size:18.3px;color:#24292f;&quot;&gt;logical, allocatable, private                    :: registered&lt;/span&gt;&lt;span style=&quot;font-size:18.3px;color:#24292f;&quot;&gt; &lt;/span&gt;&lt;span style=&quot;font-size:18.3px;color:#24292f;&quot;&gt;    &lt;br&gt;&lt;/span&gt;&lt;/span&gt;&lt;/span&gt;&lt;/div&gt;&lt;div style=&quot;display: flex; justify-content: flex-start; text-align: left; align-items: baseline; font-size: 0; line-height: 1.25;margin-top: -2px;&quot;&gt;&lt;span&gt;&lt;span style=&quot;font-weight: normal; font-style: normal;&quot;&gt;&lt;span style=&quot;font-size:18.3px;color:#24292f;&quot;&gt;logical, allocatable, private                    :: mask_variant&lt;/span&gt;&lt;span style=&quot;font-size:18.3px;color:#24292f;&quot;&gt; &lt;/span&gt;&lt;span style=&quot;font-size:18.3px;color:#24292f;&quot;&gt;    &lt;br&gt;&lt;/span&gt;&lt;/span&gt;&lt;/span&gt;&lt;/div&gt;&lt;div style=&quot;display: flex; justify-content: flex-start; text-align: left; align-items: baseline; font-size: 0; line-height: 1.25;margin-top: -2px;&quot;&gt;&lt;span&gt;&lt;span style=&quot;font-weight: normal; font-style: normal;&quot;&gt;&lt;span style=&quot;font-size:18.3px;color:#24292f;&quot;&gt;logical, allocatable, private                    :: do_not_log&lt;/span&gt;&lt;span style=&quot;font-size:18.3px;color:#24292f;&quot;&gt; &lt;/span&gt;&lt;span style=&quot;font-size:18.3px;color:#24292f;&quot;&gt;     &lt;br&gt;&lt;/span&gt;&lt;/span&gt;&lt;/span&gt;&lt;/div&gt;&lt;div style=&quot;display: flex; justify-content: flex-start; text-align: left; align-items: baseline; font-size: 0; line-height: 1.25;margin-top: -2px;&quot;&gt;&lt;span&gt;&lt;span style=&quot;font-weight: normal; font-style: normal;&quot;&gt;&lt;span style=&quot;font-size:18.3px;color:#24292f;&quot;&gt;logical, allocatable, private                    :: local &lt;/span&gt;&lt;span style=&quot;font-size:18.3px;color:#24292f;&quot;&gt; &lt;/span&gt;&lt;span style=&quot;font-size:18.3px;color:#24292f;&quot;&gt;     &lt;br&gt;&lt;/span&gt;&lt;/span&gt;&lt;/span&gt;&lt;/div&gt;&lt;div style=&quot;display: flex; justify-content: flex-start; text-align: left; align-items: baseline; font-size: 0; line-height: 1.25;margin-top: -2px;&quot;&gt;&lt;span&gt;&lt;span style=&quot;font-size:18.3px;color:#24292f;&quot;&gt;TYPE(time_type), private                         :: init_time&lt;/span&gt;&lt;span style=&quot;font-size:18.3px;color:#24292f;&quot;&gt; &lt;/span&gt;&lt;span style=&quot;font-size:18.3px;color:#24292f;&quot;&gt;     &lt;br&gt;&lt;/span&gt;&lt;/span&gt;&lt;/div&gt;&lt;div style=&quot;display: flex; justify-content: flex-start; text-align: left; align-items: baseline; font-size: 0; line-height: 1.25;margin-top: -2px;&quot;&gt;&lt;span&gt;&lt;span style=&quot;font-weight: normal; font-style: normal;&quot;&gt;&lt;span style=&quot;font-size:18.3px;color:#24292f;&quot;&gt;integer,          allocatable, private           :: vartype&lt;/span&gt;&lt;span style=&quot;font-size:18.3px;color:#24292f;&quot;&gt; &lt;/span&gt;&lt;span style=&quot;font-size:18.3px;color:#24292f;&quot;&gt;     &lt;br&gt;&lt;/span&gt;&lt;/span&gt;&lt;/span&gt;&lt;/div&gt;&lt;div style=&quot;display: flex; justify-content: flex-start; text-align: left; align-items: baseline; font-size: 0; line-height: 1.25;margin-top: -2px;&quot;&gt;&lt;span&gt;&lt;span style=&quot;font-weight: normal; font-style: normal;&quot;&gt;&lt;span style=&quot;font-size:18.3px;color:#24292f;&quot;&gt;character(len=:), allocatable, private           :: varname&lt;/span&gt;&lt;span style=&quot;font-size:18.3px;color:#24292f;&quot;&gt; &lt;/span&gt;&lt;span style=&quot;font-size:18.3px;color:#24292f;&quot;&gt;     &lt;br&gt;&lt;/span&gt;&lt;/span&gt;&lt;/span&gt;&lt;/div&gt;&lt;div style=&quot;display: flex; justify-content: flex-start; text-align: left; align-items: baseline; font-size: 0; line-height: 1.25;margin-top: -2px;&quot;&gt;&lt;span&gt;&lt;span style=&quot;font-weight: normal; font-style: normal;&quot;&gt;&lt;span style=&quot;font-size:18.3px;color:#24292f;&quot;&gt;character(len=:), allocatable, private           :: longname&lt;/span&gt;&lt;span style=&quot;font-size:18.3px;color:#24292f;&quot;&gt; &lt;/span&gt;&lt;span style=&quot;font-size:18.3px;color:#24292f;&quot;&gt;     &lt;br&gt;&lt;/span&gt;&lt;/span&gt;&lt;/span&gt;&lt;/div&gt;&lt;div style=&quot;display: flex; justify-content: flex-start; text-align: left; align-items: baseline; font-size: 0; line-height: 1.25;margin-top: -2px;&quot;&gt;&lt;span&gt;&lt;span style=&quot;font-weight: normal; font-style: normal;&quot;&gt;&lt;span style=&quot;font-size:18.3px;color:#24292f;&quot;&gt;character(len=:), allocatable, private           :: standname&lt;/span&gt;&lt;span style=&quot;font-size:18.3px;color:#24292f;&quot;&gt; &lt;br&gt;&lt;/span&gt;&lt;/span&gt;&lt;/span&gt;&lt;/div&gt;&lt;div style=&quot;display: flex; justify-content: flex-start; text-align: left; align-items: baseline; font-size: 0; line-height: 1.25;margin-top: -2px;&quot;&gt;&lt;span&gt;&lt;span style=&quot;font-size: 18.3px; color: rgb(36, 41, 47); font-weight: normal; font-style: normal;&quot;&gt;&lt;span style=&quot;font-size:18.3px;color:#24292f;&quot;&gt;character(len=:), allocatable, private           :: units&lt;/span&gt;&lt;span style=&quot;font-size:18.3px;color:#24292f;&quot;&gt; &lt;/span&gt;&lt;span style=&quot;font-size:18.3px;color:#24292f;&quot;&gt;     &lt;br&gt;&lt;/span&gt;&lt;/span&gt;&lt;/span&gt;&lt;/div&gt;&lt;div style=&quot;display: flex; justify-content: flex-start; text-align: left; align-items: baseline; font-size: 0; line-height: 1.25;margin-top: -2px;&quot;&gt;&lt;span&gt;&lt;span style=&quot;font-weight: normal; font-style: normal;&quot;&gt;&lt;span style=&quot;font-size:18.3px;color:#24292f;&quot;&gt;character(len=:), allocatable, private           :: modname&lt;/span&gt;&lt;span style=&quot;font-size:18.3px;color:#24292f;&quot;&gt; &lt;/span&gt;&lt;span style=&quot;font-size:18.3px;color:#24292f;&quot;&gt;     &lt;br&gt;&lt;/span&gt;&lt;/span&gt;&lt;/span&gt;&lt;/div&gt;&lt;div style=&quot;display: flex; justify-content: flex-start; text-align: left; align-items: baseline; font-size: 0; line-height: 1.25;margin-top: -2px;&quot;&gt;&lt;span&gt;&lt;span style=&quot;font-style: normal; font-weight: normal;&quot;&gt;&lt;span style=&quot;font-size:18.3px;color:#24292f;&quot;&gt;character(len=:), allocatable, private           :: interp_method&lt;/span&gt;&lt;span style=&quot;font-size:18.3px;color:#24292f;&quot;&gt; &lt;/span&gt;&lt;span style=&quot;font-size:18.3px;color:#24292f;&quot;&gt;     &lt;br&gt;&lt;/span&gt;&lt;/span&gt;&lt;/span&gt;&lt;/div&gt;&lt;div style=&quot;display: flex; justify-content: flex-start; text-align: left; align-items: baseline; font-size: 0; line-height: 1.25;margin-top: -2px;&quot;&gt;&lt;span&gt;&lt;span style=&quot;font-size:18.3px;color:#24292f;&quot;&gt;integer, allocatable, private                    :: tile_count&lt;/span&gt;&lt;span style=&quot;font-size:18.3px;color:#24292f;&quot;&gt; &lt;/span&gt;&lt;span style=&quot;font-size:18.3px;color:#24292f;&quot;&gt;    &lt;br&gt;&lt;/span&gt;&lt;/span&gt;&lt;/div&gt;&lt;div style=&quot;display: flex; justify-content: flex-start; text-align: left; align-items: baseline; font-size: 0; line-height: 1.25;margin-top: -2px;&quot;&gt;&lt;span&gt;&lt;span style=&quot;font-weight: normal; font-style: normal;&quot;&gt;&lt;span style=&quot;font-size:18.3px;color:#24292f;&quot;&gt;integer, pointer, dimension(:), private          :: axis_ids&lt;/span&gt;&lt;span style=&quot;font-size:18.3px;color:#24292f;&quot;&gt; &lt;br&gt;&lt;/span&gt;&lt;span style=&quot;font-size:18.3px;color:#24292f;&quot;&gt;class(diagDomain_t), pointer,   private          :: domain&lt;/span&gt;&lt;span style=&quot;font-size:18.3px;color:#24292f;&quot;&gt; &lt;/span&gt;&lt;span style=&quot;font-size:18.3px;color:#24292f;&quot;&gt;     &lt;br&gt;&lt;/span&gt;&lt;/span&gt;&lt;/span&gt;&lt;/div&gt;&lt;div style=&quot;display: flex; justify-content: flex-start; text-align: left; align-items: baseline; font-size: 0; line-height: 1.25;margin-top: -2px;&quot;&gt;&lt;span&gt;&lt;span style=&quot;font-weight: normal; font-style: normal;&quot;&gt;&lt;span style=&quot;font-size:18.3px;color:#24292f;&quot;&gt;INTEGER                         , private        :: type_of_domain&lt;/span&gt;&lt;span style=&quot;font-size:18.3px;color:#24292f;&quot;&gt; &lt;/span&gt;&lt;span style=&quot;font-size:18.3px;color:#24292f;&quot;&gt;     &lt;br&gt;&lt;/span&gt;&lt;/span&gt;&lt;/span&gt;&lt;/div&gt;&lt;div style=&quot;display: flex; justify-content: flex-start; text-align: left; align-items: baseline; font-size: 0; line-height: 1.25;margin-top: -2px;&quot;&gt;&lt;span&gt;&lt;span style=&quot;font-size:18.3px;color:#24292f;&quot;&gt;integer, allocatable, private                    :: area, volume&lt;/span&gt;&lt;span style=&quot;font-size:18.3px;color:#24292f;&quot;&gt; &lt;/span&gt;&lt;span style=&quot;font-size:18.3px;color:#24292f;&quot;&gt;     &lt;br&gt;&lt;/span&gt;&lt;/span&gt;&lt;/div&gt;&lt;div style=&quot;display: flex; justify-content: flex-start; text-align: left; align-items: baseline; font-size: 0; line-height: 1.25;margin-top: -2px;&quot;&gt;&lt;span&gt;&lt;span style=&quot;font-size:18.3px;color:#24292f;&quot;&gt;&lt;span style=&quot;font-size:18.3px;color:#24292f;font-style: italic;&quot;&gt;class(*), allocatable, private                   :: missing_value      &lt;br&gt;&lt;/span&gt;&lt;/span&gt;&lt;/span&gt;&lt;/div&gt;&lt;div style=&quot;display: flex; justify-content: flex-start; text-align: left; align-items: baseline; font-size: 0; line-height: 1.25;margin-top: -2px;&quot;&gt;&lt;span&gt;&lt;span style=&quot;font-size:18.3px;color:#24292f;font-style: italic;&quot;&gt;class(*), allocatable, private                   :: data_RANGE(:)&lt;br&gt;&lt;/span&gt;&lt;/span&gt;&lt;/div&gt;&lt;div style=&quot;display: flex; justify-content: flex-start; text-align: left; align-items: baseline; font-size: 0; line-height: 1.25;margin-top: -2px;&quot;&gt;&lt;span&gt;&lt;span style=&quot;font-size: 18.3px; color: rgb(36, 41, 47); font-weight: normal;&quot;&gt;&lt;span style=&quot;font-size: 18.3px; color: rgb(36, 41, 47);&quot;&gt;!!!!! &lt;/span&gt;&lt;span style=&quot;font-size: 18.3px; color: rgb(0, 0, 0);&quot;&gt;dimension and id&lt;br&gt;&lt;/span&gt;&lt;/span&gt;&lt;/span&gt;&lt;/div&gt;&lt;div style=&quot;display: flex; justify-content: flex-start; text-align: left; align-items: baseline; font-size: 0; line-height: 1.25;margin-top: -2px;&quot;&gt;&lt;span&gt;&lt;span style=&quot;font-size: 18.3px; font-weight: normal; font-style: normal;&quot;&gt;&lt;span style=&quot;font-size:18.3px;color:#24292f;&quot;&gt;integer, dimension(:,:), allocatable :: buffer_ids&lt;/span&gt;&lt;span style=&quot;font-size:15.7px;color:#24292f;&quot;&gt; &lt;br&gt;&lt;/span&gt;&lt;/span&gt;&lt;/span&gt;&lt;/div&gt;&lt;div style=&quot;display: flex; justify-content: flex-start; text-align: left; align-items: baseline; font-size: 0; line-height: 1.25;margin-top: -2px;&quot;&gt;&lt;span&gt;&lt;span style=&quot;font-weight: normal; font-style: normal;&quot;&gt;&lt;span style=&quot;font-size:15.7px;color:#24292f;&quot;&gt;class(&lt;/span&gt;&lt;span style=&quot;font-size:16.7px;color:#3a414a;&quot;&gt;fmsDiagBuffer_type), pointer,  :: buffer_object&lt;/span&gt;&lt;/span&gt;&lt;/span&gt;&lt;/div&gt;" style="part=1;html=1;resizeHeight=0;strokeColor=none;fillColor=none;verticalAlign=middle;spacingLeft=4;spacingRight=4;overflow=hidden;rotatable=0;points=[[0,0.5],[1,0.5]];portConstraint=eastwest;swimlaneFillColor=#ffffff;strokeOpacity=100;whiteSpace=wrap;fontSize=18.3;fontColor=#24292f;fontStyle=3;align=left;" vertex="1" parent="K0b4yNtIqu9R4qsapTuJ-11">
          <mxGeometry y="25" width="630" height="605" as="geometry" />
        </mxCell>
        <mxCell id="K0b4yNtIqu9R4qsapTuJ-13" value="" style="line;strokeWidth=1;fillColor=none;align=left;verticalAlign=middle;spacingTop=-1;spacingLeft=3;spacingRight=3;rotatable=0;labelPosition=right;points=[];portConstraint=eastwest;" vertex="1" parent="K0b4yNtIqu9R4qsapTuJ-11">
          <mxGeometry y="630" width="630" height="8" as="geometry" />
        </mxCell>
        <mxCell id="K0b4yNtIqu9R4qsapTuJ-14" value="has/get()&#xa;diag_register_var_object()&#xa;diag_register_buffer_to_variable(bufferID)" style="part=1;resizeHeight=0;strokeColor=none;fillColor=none;align=left;verticalAlign=middle;spacingLeft=4;spacingRight=4;rotatable=0;points=[[0,0.5],[1,0.5]];portConstraint=eastwest;swimlaneFillColor=#ffffff;strokeOpacity=100;whiteSpace=wrap;overflow=block;blockSpacing=1;html=1;fontSize=13;" vertex="1" parent="K0b4yNtIqu9R4qsapTuJ-11">
          <mxGeometry y="638" width="630" height="112" as="geometry" />
        </mxCell>
        <mxCell id="K0b4yNtIqu9R4qsapTuJ-15" value="fmsDiagBuffer_type" style="html=1;overflow=block;blockSpacing=1;swimlane;childLayout=stackLayout;horizontal=1;horizontalStack=0;resizeParent=1;resizeParentMax=0;resizeLast=0;collapsible=0;fontStyle=0;marginBottom=0;swimlaneFillColor=#ffffff;startSize=25;whiteSpace=wrap;fontSize=16.7;fontColor=#3a414a;align=left;spacing=0;strokeColor=#3a414a;strokeOpacity=100;rounded=1;absoluteArcSize=1;arcSize=9;strokeWidth=0.8;" vertex="1" parent="1">
          <mxGeometry x="2035" y="615" width="600" height="420" as="geometry" />
        </mxCell>
        <mxCell id="K0b4yNtIqu9R4qsapTuJ-16" value="&lt;div style=&quot;display: flex; justify-content: flex-start; text-align: left; align-items: baseline; font-size: 0; line-height: 1.25;margin-top: -2px;&quot;&gt;&lt;span&gt;&lt;span style=&quot;font-style: normal;&quot;&gt;&lt;span style=&quot;font-size: 18.3px; color: rgb(36, 41, 47);&quot;&gt;class(*), dimension(:,:,:,:), pointer :: buffer !&amp;lt; for pointer rank remapping&lt;/span&gt;&lt;span style=&quot;font-size: 18.3px; color: rgb(36, 41, 47);&quot;&gt;&lt;br&gt;&lt;/span&gt;&lt;/span&gt;&lt;/span&gt;&lt;/div&gt;&lt;div style=&quot;display: flex; justify-content: flex-start; text-align: left; align-items: baseline; font-size: 0; line-height: 1.25;margin-top: -2px;&quot;&gt;&lt;span&gt;&lt;span style=&quot;font-style: normal;&quot;&gt;&lt;span style=&quot;font-size:18.3px;color:#24292f;&quot;&gt;integer, allocatable, private                    :: buffer_id(:)&lt;/span&gt;&lt;span style=&quot;font-size:18.3px;color:#24292f;&quot;&gt;&lt;br&gt;&lt;/span&gt;&lt;/span&gt;&lt;/span&gt;&lt;/div&gt;&lt;div style=&quot;display: flex; justify-content: flex-start; text-align: left; align-items: baseline; font-size: 0; line-height: 1.25;margin-top: -2px;&quot;&gt;&lt;span&gt;&lt;span style=&quot;font-size:18.3px;color:#24292f;&quot;&gt;&lt;span style=&quot;font-size:18.3px;color:#24292f;&quot;&gt;TYPE(time_type), private                         :: init_time&lt;/span&gt;&lt;span style=&quot;font-size:18.3px;color:#24292f;&quot;&gt; &lt;br&gt;&lt;/span&gt;&lt;span style=&quot;font-style: normal;&quot;&gt;&lt;span style=&quot;font-size: 18.3px; color: rgb(36, 41, 47);&quot;&gt;character(len=:), allocatable, private           :: interp_method&lt;/span&gt;&lt;span style=&quot;font-size: 18.3px; color: rgb(36, 41, 47);&quot;&gt; &lt;/span&gt;&lt;span style=&quot;font-size: 18.3px; color: rgb(36, 41, 47);&quot;&gt;     &lt;br&gt;&lt;/span&gt;&lt;/span&gt;&lt;/span&gt;&lt;/span&gt;&lt;/div&gt;&lt;div style=&quot;display: flex; justify-content: flex-start; text-align: left; align-items: baseline; font-size: 0; line-height: 1.25;margin-top: -2px;&quot;&gt;&lt;span&gt;&lt;span style=&quot;font-size:18.3px;color:#24292f;&quot;&gt;&lt;span style=&quot;font-size:18.3px;color:#24292f;font-style: italic;&quot;&gt;! integer,                                         :: frequency      &lt;/span&gt;&lt;br&gt;&lt;/span&gt;&lt;/span&gt;&lt;/div&gt;&lt;div style=&quot;display: flex; justify-content: flex-start; text-align: left; align-items: baseline; font-size: 0; line-height: 1.25;margin-top: -2px;&quot;&gt;&lt;span&gt;&lt;span style=&quot;font-size:18.3px;color:#24292f;&quot;&gt;&lt;span style=&quot;font-size:18.3px;color:#24292f;&quot;&gt;integer, allocatable, private                    :: tile_count&lt;/span&gt;&lt;span style=&quot;font-size:18.3px;color:#24292f;&quot;&gt; &lt;/span&gt;&lt;span style=&quot;font-size:18.3px;color:#24292f;&quot;&gt;     &lt;br&gt;&lt;/span&gt;&lt;/span&gt;&lt;/span&gt;&lt;/div&gt;&lt;div style=&quot;display: flex; justify-content: flex-start; text-align: left; align-items: baseline; font-size: 0; line-height: 1.25;margin-top: -2px;&quot;&gt;&lt;span&gt;&lt;span style=&quot;font-size:18.3px;color:#24292f;&quot;&gt;integer, pointer, dimension(:), private          :: axis_ids&lt;/span&gt;&lt;span style=&quot;font-size:18.3px;color:#24292f;&quot;&gt; &lt;br&gt;&lt;/span&gt;&lt;span style=&quot;font-size:18.3px;color:#24292f;&quot;&gt;class(diagDomain_t), pointer,   private          :: domain&lt;/span&gt;&lt;span style=&quot;font-size:18.3px;color:#24292f;&quot;&gt; &lt;/span&gt;&lt;span style=&quot;font-size:18.3px;color:#24292f;&quot;&gt;     &lt;/span&gt;&lt;span style=&quot;font-size:18.3px;color:#24292f;&quot;&gt;&lt;br&gt;&lt;/span&gt;&lt;/span&gt;&lt;/div&gt;&lt;div style=&quot;display: flex; justify-content: flex-start; text-align: left; align-items: baseline; font-size: 0; line-height: 1.25;margin-top: -2px;&quot;&gt;&lt;span&gt;&lt;span style=&quot;font-size:18.3px;color:#24292f;&quot;&gt;integer, allocatable, private                    :: area, volume&lt;/span&gt;&lt;span style=&quot;font-size:18.3px;color:#24292f;&quot;&gt; &lt;/span&gt;&lt;span style=&quot;font-size:18.3px;color:#24292f;&quot;&gt;     &lt;br&gt;&lt;/span&gt;&lt;/span&gt;&lt;/div&gt;&lt;div style=&quot;display: flex; justify-content: flex-start; text-align: left; align-items: baseline; font-size: 0; line-height: 1.25;margin-top: -2px;&quot;&gt;&lt;span&gt;&lt;span style=&quot;font-size:18.3px;color:#24292f;&quot;&gt;class(*), allocatable, private                   :: missing_value&lt;/span&gt;&lt;span style=&quot;font-size:18.3px;color:#24292f;&quot;&gt; &lt;/span&gt;&lt;span style=&quot;font-size:18.3px;color:#24292f;&quot;&gt;     &lt;br&gt;&lt;/span&gt;&lt;/span&gt;&lt;/div&gt;&lt;div style=&quot;display: flex; justify-content: flex-start; text-align: left; align-items: baseline; font-size: 0; line-height: 1.25;margin-top: -2px;&quot;&gt;&lt;span&gt;&lt;span style=&quot;font-size:18.3px;color:#24292f;&quot;&gt;class(*), allocatable, private                   :: data_RANGE(:)&lt;/span&gt;&lt;span style=&quot;font-size:14px;color:#24292f;&quot;&gt; &lt;br&gt;&lt;/span&gt;&lt;/span&gt;&lt;/div&gt;&lt;div style=&quot;display: flex; justify-content: flex-start; text-align: left; align-items: baseline; font-size: 0; line-height: 1.25;margin-top: -2px;&quot;&gt;&lt;span&gt;&lt;span style=&quot;font-size:16px;color:#000000;&quot;&gt;&lt;span style=&quot;font-style: normal;&quot;&gt;?reduced_k_range?&lt;/span&gt;&lt;br&gt;&lt;/span&gt;&lt;/span&gt;&lt;/div&gt;&lt;div style=&quot;display: flex; justify-content: center; text-align: center; align-items: baseline; font-size: 0; line-height: 1.25;margin-top: -2px;&quot;&gt;&lt;span&gt;&lt;/span&gt;&lt;/div&gt;" style="part=1;html=1;resizeHeight=0;strokeColor=none;fillColor=none;verticalAlign=middle;spacingLeft=4;spacingRight=4;overflow=hidden;rotatable=0;points=[[0,0.5],[1,0.5]];portConstraint=eastwest;swimlaneFillColor=#ffffff;strokeOpacity=100;whiteSpace=wrap;fontSize=18.3;fontColor=#24292f;fontStyle=2;align=left;" vertex="1" parent="K0b4yNtIqu9R4qsapTuJ-15">
          <mxGeometry y="25" width="600" height="275" as="geometry" />
        </mxCell>
        <mxCell id="K0b4yNtIqu9R4qsapTuJ-17" value="" style="line;strokeWidth=1;fillColor=none;align=left;verticalAlign=middle;spacingTop=-1;spacingLeft=3;spacingRight=3;rotatable=0;labelPosition=right;points=[];portConstraint=eastwest;" vertex="1" parent="K0b4yNtIqu9R4qsapTuJ-15">
          <mxGeometry y="300" width="600" height="8" as="geometry" />
        </mxCell>
        <mxCell id="K0b4yNtIqu9R4qsapTuJ-18" value="reductions() !! What do you need for these functions?&#xa;get_remapped_buffer_pointer()&#xa;get_buffer_data ()" style="part=1;resizeHeight=0;strokeColor=none;fillColor=none;align=left;verticalAlign=middle;spacingLeft=4;spacingRight=4;rotatable=0;points=[[0,0.5],[1,0.5]];portConstraint=eastwest;swimlaneFillColor=#ffffff;strokeOpacity=100;whiteSpace=wrap;overflow=block;blockSpacing=1;html=1;fontSize=13;" vertex="1" parent="K0b4yNtIqu9R4qsapTuJ-15">
          <mxGeometry y="308" width="600" height="112" as="geometry" />
        </mxCell>
        <mxCell id="K0b4yNtIqu9R4qsapTuJ-19" value="buffer0d" style="html=1;overflow=block;blockSpacing=1;swimlane;childLayout=stackLayout;horizontal=1;horizontalStack=0;resizeParent=1;resizeParentMax=0;resizeLast=0;collapsible=0;fontStyle=0;marginBottom=0;swimlaneFillColor=#ffffff;startSize=25;whiteSpace=wrap;fontSize=16.7;fontColor=#3a414a;align=left;spacing=0;strokeColor=#3a414a;strokeOpacity=100;rounded=1;absoluteArcSize=1;arcSize=9;strokeWidth=0.8;" vertex="1" parent="1">
          <mxGeometry x="1405" y="1440" width="255" height="270" as="geometry" />
        </mxCell>
        <mxCell id="K0b4yNtIqu9R4qsapTuJ-20" value="class(*) :: buffer" style="part=1;html=1;resizeHeight=0;strokeColor=none;fillColor=none;align=left;verticalAlign=middle;spacingLeft=4;spacingRight=4;overflow=hidden;rotatable=0;points=[[0,0.5],[1,0.5]];portConstraint=eastwest;swimlaneFillColor=#ffffff;strokeOpacity=100;whiteSpace=wrap;fontSize=16.7;fontColor=#3a414a;" vertex="1" parent="K0b4yNtIqu9R4qsapTuJ-19">
          <mxGeometry y="25" width="255" height="102" as="geometry" />
        </mxCell>
        <mxCell id="K0b4yNtIqu9R4qsapTuJ-21" value="" style="line;strokeWidth=1;fillColor=none;align=left;verticalAlign=middle;spacingTop=-1;spacingLeft=3;spacingRight=3;rotatable=0;labelPosition=right;points=[];portConstraint=eastwest;" vertex="1" parent="K0b4yNtIqu9R4qsapTuJ-19">
          <mxGeometry y="127" width="255" height="8" as="geometry" />
        </mxCell>
        <mxCell id="K0b4yNtIqu9R4qsapTuJ-22" value="allocate_buffer()&#xa;flush_buffer()&#xa;initialize_buffer(fillvals)&#xa;remap_buffer()&#xa;add_to_buffer(input_data(:) )&#xa;get_buffer_data ()" style="part=1;html=1;resizeHeight=0;strokeColor=none;fillColor=none;align=left;verticalAlign=middle;spacingLeft=4;spacingRight=4;overflow=hidden;rotatable=0;points=[[0,0.5],[1,0.5]];portConstraint=eastwest;swimlaneFillColor=#ffffff;strokeOpacity=100;whiteSpace=wrap;fontSize=16.7;fontColor=#3a414a;" vertex="1" parent="K0b4yNtIqu9R4qsapTuJ-19">
          <mxGeometry y="135" width="255" height="135" as="geometry" />
        </mxCell>
        <mxCell id="K0b4yNtIqu9R4qsapTuJ-23" value="buffer1d" style="html=1;overflow=block;blockSpacing=1;swimlane;childLayout=stackLayout;horizontal=1;horizontalStack=0;resizeParent=1;resizeParentMax=0;resizeLast=0;collapsible=0;fontStyle=0;marginBottom=0;swimlaneFillColor=#ffffff;startSize=25;whiteSpace=wrap;fontSize=16.7;fontColor=#3a414a;align=left;spacing=0;strokeColor=#3a414a;strokeOpacity=100;rounded=1;absoluteArcSize=1;arcSize=9;strokeWidth=0.8;" vertex="1" parent="1">
          <mxGeometry x="1675" y="1443" width="300" height="270" as="geometry" />
        </mxCell>
        <mxCell id="K0b4yNtIqu9R4qsapTuJ-24" value="class(*) :: buffer (:)" style="part=1;html=1;resizeHeight=0;strokeColor=none;fillColor=none;align=left;verticalAlign=middle;spacingLeft=4;spacingRight=4;overflow=hidden;rotatable=0;points=[[0,0.5],[1,0.5]];portConstraint=eastwest;swimlaneFillColor=#ffffff;strokeOpacity=100;whiteSpace=wrap;fontSize=16.7;fontColor=#3a414a;" vertex="1" parent="K0b4yNtIqu9R4qsapTuJ-23">
          <mxGeometry y="25" width="300" height="102" as="geometry" />
        </mxCell>
        <mxCell id="K0b4yNtIqu9R4qsapTuJ-25" value="" style="line;strokeWidth=1;fillColor=none;align=left;verticalAlign=middle;spacingTop=-1;spacingLeft=3;spacingRight=3;rotatable=0;labelPosition=right;points=[];portConstraint=eastwest;" vertex="1" parent="K0b4yNtIqu9R4qsapTuJ-23">
          <mxGeometry y="127" width="300" height="8" as="geometry" />
        </mxCell>
        <mxCell id="K0b4yNtIqu9R4qsapTuJ-26" value="allocate_buffer()&#xa;flush_buffer()&#xa;initialize_buffer(fillvals)&#xa;remap_buffer()&#xa;add_to_buffer(input_data(:) )&#xa;get_buffer_data ()" style="part=1;html=1;resizeHeight=0;strokeColor=none;fillColor=none;align=left;verticalAlign=middle;spacingLeft=4;spacingRight=4;overflow=hidden;rotatable=0;points=[[0,0.5],[1,0.5]];portConstraint=eastwest;swimlaneFillColor=#ffffff;strokeOpacity=100;whiteSpace=wrap;fontSize=16.7;fontColor=#3a414a;" vertex="1" parent="K0b4yNtIqu9R4qsapTuJ-23">
          <mxGeometry y="135" width="300" height="135" as="geometry" />
        </mxCell>
        <mxCell id="K0b4yNtIqu9R4qsapTuJ-27" value="buffer2d" style="html=1;overflow=block;blockSpacing=1;swimlane;childLayout=stackLayout;horizontal=1;horizontalStack=0;resizeParent=1;resizeParentMax=0;resizeLast=0;collapsible=0;fontStyle=0;marginBottom=0;swimlaneFillColor=#ffffff;startSize=25;whiteSpace=wrap;fontSize=16.7;fontColor=#3a414a;align=left;spacing=0;strokeColor=#3a414a;strokeOpacity=100;rounded=1;absoluteArcSize=1;arcSize=9;strokeWidth=0.8;" vertex="1" parent="1">
          <mxGeometry x="1990" y="1443" width="300" height="260" as="geometry" />
        </mxCell>
        <mxCell id="K0b4yNtIqu9R4qsapTuJ-28" value="class(*) :: buffer (:,:)" style="part=1;html=1;resizeHeight=0;strokeColor=none;fillColor=none;align=left;verticalAlign=middle;spacingLeft=4;spacingRight=4;overflow=hidden;rotatable=0;points=[[0,0.5],[1,0.5]];portConstraint=eastwest;swimlaneFillColor=#ffffff;strokeOpacity=100;whiteSpace=wrap;fontSize=16.7;fontColor=#3a414a;" vertex="1" parent="K0b4yNtIqu9R4qsapTuJ-27">
          <mxGeometry y="25" width="300" height="102" as="geometry" />
        </mxCell>
        <mxCell id="K0b4yNtIqu9R4qsapTuJ-29" value="" style="line;strokeWidth=1;fillColor=none;align=left;verticalAlign=middle;spacingTop=-1;spacingLeft=3;spacingRight=3;rotatable=0;labelPosition=right;points=[];portConstraint=eastwest;" vertex="1" parent="K0b4yNtIqu9R4qsapTuJ-27">
          <mxGeometry y="127" width="300" height="8" as="geometry" />
        </mxCell>
        <mxCell id="K0b4yNtIqu9R4qsapTuJ-30" value="allocate_buffer()&#xa;flush_buffer()&#xa;initialize_buffer(fillvals)&#xa;remap_buffer()&#xa;add_to_buffer(input_data(:,:) )&#xa;get_buffer_data ()" style="part=1;html=1;resizeHeight=0;strokeColor=none;fillColor=none;align=left;verticalAlign=middle;spacingLeft=4;spacingRight=4;overflow=hidden;rotatable=0;points=[[0,0.5],[1,0.5]];portConstraint=eastwest;swimlaneFillColor=#ffffff;strokeOpacity=100;whiteSpace=wrap;fontSize=16.7;fontColor=#3a414a;" vertex="1" parent="K0b4yNtIqu9R4qsapTuJ-27">
          <mxGeometry y="135" width="300" height="125" as="geometry" />
        </mxCell>
        <mxCell id="K0b4yNtIqu9R4qsapTuJ-31" value="buffer3d" style="html=1;overflow=block;blockSpacing=1;swimlane;childLayout=stackLayout;horizontal=1;horizontalStack=0;resizeParent=1;resizeParentMax=0;resizeLast=0;collapsible=0;fontStyle=0;marginBottom=0;swimlaneFillColor=#ffffff;startSize=25;whiteSpace=wrap;fontSize=16.7;fontColor=#3a414a;align=left;spacing=0;strokeColor=#3a414a;strokeOpacity=100;rounded=1;absoluteArcSize=1;arcSize=9;strokeWidth=0.8;" vertex="1" parent="1">
          <mxGeometry x="2320" y="1440" width="300" height="270" as="geometry" />
        </mxCell>
        <mxCell id="K0b4yNtIqu9R4qsapTuJ-32" value="class(*) :: buffer (:,:,:)" style="part=1;html=1;resizeHeight=0;strokeColor=none;fillColor=none;align=left;verticalAlign=middle;spacingLeft=4;spacingRight=4;overflow=hidden;rotatable=0;points=[[0,0.5],[1,0.5]];portConstraint=eastwest;swimlaneFillColor=#ffffff;strokeOpacity=100;whiteSpace=wrap;fontSize=16.7;fontColor=#3a414a;" vertex="1" parent="K0b4yNtIqu9R4qsapTuJ-31">
          <mxGeometry y="25" width="300" height="102" as="geometry" />
        </mxCell>
        <mxCell id="K0b4yNtIqu9R4qsapTuJ-33" value="" style="line;strokeWidth=1;fillColor=none;align=left;verticalAlign=middle;spacingTop=-1;spacingLeft=3;spacingRight=3;rotatable=0;labelPosition=right;points=[];portConstraint=eastwest;" vertex="1" parent="K0b4yNtIqu9R4qsapTuJ-31">
          <mxGeometry y="127" width="300" height="8" as="geometry" />
        </mxCell>
        <mxCell id="K0b4yNtIqu9R4qsapTuJ-34" value="allocate_buffer()&#xa;flush_buffer()&#xa;initialize_buffer(fillvals)&#xa;remap_buffer()&#xa;add_to_buffer(input_data(:,:.:) )&#xa;get_buffer_data ()" style="part=1;html=1;resizeHeight=0;strokeColor=none;fillColor=none;align=left;verticalAlign=middle;spacingLeft=4;spacingRight=4;overflow=hidden;rotatable=0;points=[[0,0.5],[1,0.5]];portConstraint=eastwest;swimlaneFillColor=#ffffff;strokeOpacity=100;whiteSpace=wrap;fontSize=16.7;fontColor=#3a414a;" vertex="1" parent="K0b4yNtIqu9R4qsapTuJ-31">
          <mxGeometry y="135" width="300" height="135" as="geometry" />
        </mxCell>
        <mxCell id="K0b4yNtIqu9R4qsapTuJ-35" value="buffer4d" style="html=1;overflow=block;blockSpacing=1;swimlane;childLayout=stackLayout;horizontal=1;horizontalStack=0;resizeParent=1;resizeParentMax=0;resizeLast=0;collapsible=0;fontStyle=0;marginBottom=0;swimlaneFillColor=#ffffff;startSize=25;whiteSpace=wrap;fontSize=16.7;fontColor=#3a414a;align=left;spacing=0;strokeColor=#3a414a;strokeOpacity=100;rounded=1;absoluteArcSize=1;arcSize=9;strokeWidth=0.8;" vertex="1" parent="1">
          <mxGeometry x="2635" y="1440" width="300" height="270" as="geometry" />
        </mxCell>
        <mxCell id="K0b4yNtIqu9R4qsapTuJ-36" value="class(*) :: buffer (:,:,:,:)" style="part=1;html=1;resizeHeight=0;strokeColor=none;fillColor=none;align=left;verticalAlign=middle;spacingLeft=4;spacingRight=4;overflow=hidden;rotatable=0;points=[[0,0.5],[1,0.5]];portConstraint=eastwest;swimlaneFillColor=#ffffff;strokeOpacity=100;whiteSpace=wrap;fontSize=16.7;fontColor=#3a414a;" vertex="1" parent="K0b4yNtIqu9R4qsapTuJ-35">
          <mxGeometry y="25" width="300" height="102" as="geometry" />
        </mxCell>
        <mxCell id="K0b4yNtIqu9R4qsapTuJ-37" value="" style="line;strokeWidth=1;fillColor=none;align=left;verticalAlign=middle;spacingTop=-1;spacingLeft=3;spacingRight=3;rotatable=0;labelPosition=right;points=[];portConstraint=eastwest;" vertex="1" parent="K0b4yNtIqu9R4qsapTuJ-35">
          <mxGeometry y="127" width="300" height="8" as="geometry" />
        </mxCell>
        <mxCell id="K0b4yNtIqu9R4qsapTuJ-38" value="allocate_buffer()&#xa;flush_buffer()&#xa;initialize_buffer(fillvals)&#xa;remap_buffer()&#xa;add_to_buffer(input_data(:,:,:,:) )&#xa;get_buffer_data ()" style="part=1;html=1;resizeHeight=0;strokeColor=none;fillColor=none;align=left;verticalAlign=middle;spacingLeft=4;spacingRight=4;overflow=hidden;rotatable=0;points=[[0,0.5],[1,0.5]];portConstraint=eastwest;swimlaneFillColor=#ffffff;strokeOpacity=100;whiteSpace=wrap;fontSize=16.7;fontColor=#3a414a;" vertex="1" parent="K0b4yNtIqu9R4qsapTuJ-35">
          <mxGeometry y="135" width="300" height="135" as="geometry" />
        </mxCell>
        <mxCell id="K0b4yNtIqu9R4qsapTuJ-39" value="buffer5d" style="html=1;overflow=block;blockSpacing=1;swimlane;childLayout=stackLayout;horizontal=1;horizontalStack=0;resizeParent=1;resizeParentMax=0;resizeLast=0;collapsible=0;fontStyle=0;marginBottom=0;swimlaneFillColor=#ffffff;startSize=25;whiteSpace=wrap;fontSize=16.7;fontColor=#3a414a;align=left;spacing=0;strokeColor=#3a414a;strokeOpacity=100;rounded=1;absoluteArcSize=1;arcSize=9;strokeWidth=0.8;" vertex="1" parent="1">
          <mxGeometry x="2950" y="1440" width="300" height="270" as="geometry" />
        </mxCell>
        <mxCell id="K0b4yNtIqu9R4qsapTuJ-40" value="class(*) :: buffer (:,:,:,:,:)" style="part=1;html=1;resizeHeight=0;strokeColor=none;fillColor=none;align=left;verticalAlign=middle;spacingLeft=4;spacingRight=4;overflow=hidden;rotatable=0;points=[[0,0.5],[1,0.5]];portConstraint=eastwest;swimlaneFillColor=#ffffff;strokeOpacity=100;whiteSpace=wrap;fontSize=16.7;fontColor=#3a414a;" vertex="1" parent="K0b4yNtIqu9R4qsapTuJ-39">
          <mxGeometry y="25" width="300" height="102" as="geometry" />
        </mxCell>
        <mxCell id="K0b4yNtIqu9R4qsapTuJ-41" value="" style="line;strokeWidth=1;fillColor=none;align=left;verticalAlign=middle;spacingTop=-1;spacingLeft=3;spacingRight=3;rotatable=0;labelPosition=right;points=[];portConstraint=eastwest;" vertex="1" parent="K0b4yNtIqu9R4qsapTuJ-39">
          <mxGeometry y="127" width="300" height="8" as="geometry" />
        </mxCell>
        <mxCell id="K0b4yNtIqu9R4qsapTuJ-42" value="allocate_buffer()&#xa;flush_buffer()&#xa;initialize_buffer(fillvals)&#xa;remap_buffer()&#xa;add_to_buffer(input_data(:,:,:,:,:) )&#xa;get_buffer_data ()" style="part=1;html=1;resizeHeight=0;strokeColor=none;fillColor=none;align=left;verticalAlign=middle;spacingLeft=4;spacingRight=4;overflow=hidden;rotatable=0;points=[[0,0.5],[1,0.5]];portConstraint=eastwest;swimlaneFillColor=#ffffff;strokeOpacity=100;whiteSpace=wrap;fontSize=16.7;fontColor=#3a414a;" vertex="1" parent="K0b4yNtIqu9R4qsapTuJ-39">
          <mxGeometry y="135" width="300" height="135" as="geometry" />
        </mxCell>
        <UserObject label="" lucidchartObjectId="qT7zHW1557qx" id="K0b4yNtIqu9R4qsapTuJ-43">
          <mxCell style="html=1;jettySize=18;whiteSpace=wrap;fontSize=13;strokeColor=#3a414a;strokeOpacity=100;strokeWidth=0.8;rounded=1;arcSize=12;edgeStyle=orthogonalEdgeStyle;startArrow=none;endArrow=block;endFill=1;exitX=0.5;exitY=-0.002;exitPerimeter=0;entryX=0.5;entryY=1.001;entryPerimeter=0;" edge="1" parent="1" source="K0b4yNtIqu9R4qsapTuJ-19" target="K0b4yNtIqu9R4qsapTuJ-15">
            <mxGeometry width="100" height="100" relative="1" as="geometry">
              <Array as="points" />
            </mxGeometry>
          </mxCell>
        </UserObject>
        <UserObject label="" lucidchartObjectId="vT7zm-A7IVEI" id="K0b4yNtIqu9R4qsapTuJ-44">
          <mxCell style="html=1;jettySize=18;whiteSpace=wrap;fontSize=13;strokeColor=#3a414a;strokeOpacity=100;strokeWidth=0.8;rounded=1;arcSize=12;edgeStyle=orthogonalEdgeStyle;startArrow=none;endArrow=block;endFill=1;exitX=0.5;exitY=-0.002;exitPerimeter=0;entryX=0.5;entryY=1.001;entryPerimeter=0;" edge="1" parent="1" source="K0b4yNtIqu9R4qsapTuJ-23" target="K0b4yNtIqu9R4qsapTuJ-15">
            <mxGeometry width="100" height="100" relative="1" as="geometry">
              <Array as="points" />
            </mxGeometry>
          </mxCell>
        </UserObject>
        <UserObject label="" lucidchartObjectId="AT7ztGwfbv2r" id="K0b4yNtIqu9R4qsapTuJ-45">
          <mxCell style="html=1;jettySize=18;whiteSpace=wrap;fontSize=13;strokeColor=#3a414a;strokeOpacity=100;strokeWidth=0.8;rounded=1;arcSize=12;edgeStyle=orthogonalEdgeStyle;startArrow=none;endArrow=block;endFill=1;exitX=0.5;exitY=-0.002;exitPerimeter=0;entryX=0.5;entryY=1.001;entryPerimeter=0;" edge="1" parent="1" source="K0b4yNtIqu9R4qsapTuJ-27" target="K0b4yNtIqu9R4qsapTuJ-15">
            <mxGeometry width="100" height="100" relative="1" as="geometry">
              <Array as="points" />
            </mxGeometry>
          </mxCell>
        </UserObject>
        <UserObject label="" lucidchartObjectId="HT7zjISIDimz" id="K0b4yNtIqu9R4qsapTuJ-46">
          <mxCell style="html=1;jettySize=18;whiteSpace=wrap;fontSize=13;strokeColor=#3a414a;strokeOpacity=100;strokeWidth=0.8;rounded=1;arcSize=12;edgeStyle=orthogonalEdgeStyle;startArrow=none;endArrow=block;endFill=1;exitX=0.5;exitY=-0.002;exitPerimeter=0;entryX=0.5;entryY=1.001;entryPerimeter=0;" edge="1" parent="1" source="K0b4yNtIqu9R4qsapTuJ-31" target="K0b4yNtIqu9R4qsapTuJ-15">
            <mxGeometry width="100" height="100" relative="1" as="geometry">
              <Array as="points" />
            </mxGeometry>
          </mxCell>
        </UserObject>
        <UserObject label="" lucidchartObjectId="ST7zdKDJ6g2u" id="K0b4yNtIqu9R4qsapTuJ-47">
          <mxCell style="html=1;jettySize=18;whiteSpace=wrap;fontSize=13;strokeColor=#3a414a;strokeOpacity=100;strokeWidth=0.8;rounded=1;arcSize=12;edgeStyle=orthogonalEdgeStyle;startArrow=none;endArrow=block;endFill=1;exitX=0.5;exitY=-0.002;exitPerimeter=0;entryX=0.5;entryY=1.001;entryPerimeter=0;" edge="1" parent="1" source="K0b4yNtIqu9R4qsapTuJ-39" target="K0b4yNtIqu9R4qsapTuJ-15">
            <mxGeometry width="100" height="100" relative="1" as="geometry">
              <Array as="points" />
            </mxGeometry>
          </mxCell>
        </UserObject>
        <mxCell id="K0b4yNtIqu9R4qsapTuJ-48" value="subRegionFile_type" style="html=1;overflow=block;blockSpacing=1;swimlane;childLayout=stackLayout;horizontal=1;horizontalStack=0;resizeParent=1;resizeParentMax=0;resizeLast=0;collapsible=0;fontStyle=0;marginBottom=0;swimlaneFillColor=#ffffff;startSize=25;whiteSpace=wrap;fontSize=16.7;fontColor=#3a414a;spacing=0;strokeColor=#3a414a;strokeOpacity=100;rounded=1;absoluteArcSize=1;arcSize=9;strokeWidth=0.8;" vertex="1" parent="1">
          <mxGeometry x="40" y="1560" width="270" height="234" as="geometry" />
        </mxCell>
        <mxCell id="K0b4yNtIqu9R4qsapTuJ-49" value="&lt;div style=&quot;display: flex; justify-content: flex-start; text-align: left; align-items: baseline; font-size: 0; line-height: 1.25;margin-top: -2px;&quot;&gt;&lt;span&gt;&lt;span style=&quot;font-size:16.7px;color:#3a414a;&quot;&gt;integer :: top_left (2)&#xa;&lt;/span&gt;&lt;/span&gt;&lt;/div&gt;&lt;div style=&quot;display: flex; justify-content: flex-start; text-align: left; align-items: baseline; font-size: 0; line-height: 1.25;margin-top: -2px;&quot;&gt;&lt;span&gt;&lt;span style=&quot;font-size:16.7px;color:#3a414a;&quot;&gt;integer :: top_right (2)&#xa;&lt;/span&gt;&lt;/span&gt;&lt;/div&gt;&lt;div style=&quot;display: flex; justify-content: flex-start; text-align: left; align-items: baseline; font-size: 0; line-height: 1.25;margin-top: -2px;&quot;&gt;&lt;span&gt;&lt;span style=&quot;font-size:16.7px;color:#3a414a;&quot;&gt;integer :: bot_left(2)&#xa;&lt;/span&gt;&lt;/span&gt;&lt;/div&gt;&lt;div style=&quot;display: flex; justify-content: flex-start; text-align: left; align-items: baseline; font-size: 0; line-height: 1.25;margin-top: -2px;&quot;&gt;&lt;span&gt;&lt;span style=&quot;font-size:16.7px;color:#3a414a;&quot;&gt;integer :: bot_right(2)&#xa;&lt;/span&gt;&lt;/span&gt;&lt;/div&gt;&lt;div style=&quot;display: flex; justify-content: flex-start; text-align: left; align-items: baseline; font-size: 0; line-height: 1.25;margin-top: -2px;&quot;&gt;&lt;span&gt;&lt;span style=&quot;font-size:16.7px;color:#3a414a;&quot;&gt;integer :: subregion_axis_id (:)&#xa;&lt;/span&gt;&lt;/span&gt;&lt;/div&gt;&lt;div style=&quot;display: flex; justify-content: flex-start; text-align: left; align-items: baseline; font-size: 0; line-height: 1.25;margin-top: -2px;&quot;&gt;&lt;span&gt;&lt;span style=&quot;font-size:16.7px;color:#3a414a;&quot;&gt;character :: tile&#xa;&lt;/span&gt;&lt;/span&gt;&lt;/div&gt;&lt;div style=&quot;display: flex; justify-content: flex-start; text-align: left; align-items: baseline; font-size: 0; line-height: 1.25;margin-top: -2px;&quot;&gt;&lt;span&gt;&lt;span style=&quot;font-size:16.7px;color:#3a414a;&quot;&gt;logical :: is_on_this_pe&lt;/span&gt;&lt;/span&gt;&lt;/div&gt;" style="part=1;html=1;resizeHeight=0;strokeColor=none;fillColor=none;verticalAlign=middle;spacingLeft=4;spacingRight=4;overflow=hidden;rotatable=0;points=[[0,0.5],[1,0.5]];portConstraint=eastwest;swimlaneFillColor=#ffffff;strokeOpacity=100;whiteSpace=wrap;fontSize=16.7;fontColor=#3a414a;align=left;" vertex="1" parent="K0b4yNtIqu9R4qsapTuJ-48">
          <mxGeometry y="25" width="270" height="112" as="geometry" />
        </mxCell>
        <mxCell id="K0b4yNtIqu9R4qsapTuJ-50" value="" style="line;strokeWidth=1;fillColor=none;align=left;verticalAlign=middle;spacingTop=-1;spacingLeft=3;spacingRight=3;rotatable=0;labelPosition=right;points=[];portConstraint=eastwest;" vertex="1" parent="K0b4yNtIqu9R4qsapTuJ-48">
          <mxGeometry y="137" width="270" height="8" as="geometry" />
        </mxCell>
        <mxCell id="K0b4yNtIqu9R4qsapTuJ-51" value="" style="part=1;resizeHeight=0;strokeColor=none;fillColor=none;align=left;verticalAlign=middle;spacingLeft=4;spacingRight=4;rotatable=0;points=[[0,0.5],[1,0.5]];portConstraint=eastwest;swimlaneFillColor=#ffffff;strokeOpacity=100;whiteSpace=wrap;overflow=block;blockSpacing=1;html=1;fontSize=13;" vertex="1" parent="K0b4yNtIqu9R4qsapTuJ-48">
          <mxGeometry y="145" width="270" height="89" as="geometry" />
        </mxCell>
        <UserObject label="" lucidchartObjectId="NXOBt9d2fGV_" id="K0b4yNtIqu9R4qsapTuJ-52">
          <mxCell style="html=1;jettySize=18;whiteSpace=wrap;fontSize=13;strokeColor=#3a414a;strokeOpacity=100;strokeWidth=0.8;rounded=1;arcSize=12;edgeStyle=orthogonalEdgeStyle;startArrow=none;endArrow=block;endFill=1;exitX=0.5;exitY=-0.002;exitPerimeter=0;entryX=0.5;entryY=1.001;entryPerimeter=0;" edge="1" parent="1" source="K0b4yNtIqu9R4qsapTuJ-35" target="K0b4yNtIqu9R4qsapTuJ-15">
            <mxGeometry width="100" height="100" relative="1" as="geometry">
              <Array as="points" />
            </mxGeometry>
          </mxCell>
        </UserObject>
        <mxCell id="K0b4yNtIqu9R4qsapTuJ-53" value="diurnalFile_type" style="html=1;overflow=block;blockSpacing=1;swimlane;childLayout=stackLayout;horizontal=1;horizontalStack=0;resizeParent=1;resizeParentMax=0;resizeLast=0;collapsible=0;fontStyle=0;marginBottom=0;swimlaneFillColor=#ffffff;startSize=25;whiteSpace=wrap;fontSize=16.7;fontColor=#3a414a;spacing=0;strokeColor=#3a414a;strokeOpacity=100;rounded=1;absoluteArcSize=1;arcSize=9;strokeWidth=0.8;" vertex="1" parent="1">
          <mxGeometry x="445" y="1560" width="270" height="116" as="geometry" />
        </mxCell>
        <mxCell id="K0b4yNtIqu9R4qsapTuJ-54" value="Extra diurnal stuff" style="part=1;html=1;resizeHeight=0;strokeColor=none;fillColor=none;align=left;verticalAlign=middle;spacingLeft=4;spacingRight=4;overflow=hidden;rotatable=0;points=[[0,0.5],[1,0.5]];portConstraint=eastwest;swimlaneFillColor=#ffffff;strokeOpacity=100;whiteSpace=wrap;fontSize=16.7;fontColor=#3a414a;" vertex="1" parent="K0b4yNtIqu9R4qsapTuJ-53">
          <mxGeometry y="25" width="270" height="52" as="geometry" />
        </mxCell>
        <mxCell id="K0b4yNtIqu9R4qsapTuJ-55" value="" style="line;strokeWidth=1;fillColor=none;align=left;verticalAlign=middle;spacingTop=-1;spacingLeft=3;spacingRight=3;rotatable=0;labelPosition=right;points=[];portConstraint=eastwest;" vertex="1" parent="K0b4yNtIqu9R4qsapTuJ-53">
          <mxGeometry y="77" width="270" height="8" as="geometry" />
        </mxCell>
        <mxCell id="K0b4yNtIqu9R4qsapTuJ-56" value="" style="part=1;html=1;resizeHeight=0;strokeColor=none;fillColor=none;align=left;verticalAlign=middle;spacingLeft=4;spacingRight=4;overflow=hidden;rotatable=0;points=[[0,0.5],[1,0.5]];portConstraint=eastwest;swimlaneFillColor=#ffffff;strokeOpacity=100;whiteSpace=wrap;fontSize=13;" vertex="1" parent="K0b4yNtIqu9R4qsapTuJ-53">
          <mxGeometry y="85" width="270" height="31" as="geometry" />
        </mxCell>
        <mxCell id="K0b4yNtIqu9R4qsapTuJ-57" value="fmsDiagAxisTpye" style="html=1;overflow=block;blockSpacing=1;swimlane;childLayout=stackLayout;horizontal=1;horizontalStack=0;resizeParent=1;resizeParentMax=0;resizeLast=0;collapsible=0;fontStyle=0;marginBottom=0;swimlaneFillColor=#ffffff;startSize=25;whiteSpace=wrap;fontSize=16.7;fontColor=#3a414a;align=left;spacing=0;strokeColor=#3a414a;strokeOpacity=100;rounded=1;absoluteArcSize=1;arcSize=9;strokeWidth=0.8;" vertex="1" parent="1">
          <mxGeometry x="3490" y="615" width="270" height="187.25" as="geometry" />
        </mxCell>
        <mxCell id="K0b4yNtIqu9R4qsapTuJ-58" value="integer :: id" style="part=1;html=1;resizeHeight=0;strokeColor=none;fillColor=none;align=left;verticalAlign=middle;spacingLeft=4;spacingRight=4;overflow=hidden;rotatable=0;points=[[0,0.5],[1,0.5]];portConstraint=eastwest;swimlaneFillColor=#ffffff;strokeOpacity=100;whiteSpace=wrap;fontSize=16.7;fontColor=#3a414a;" vertex="1" parent="K0b4yNtIqu9R4qsapTuJ-57">
          <mxGeometry y="25" width="270" height="72" as="geometry" />
        </mxCell>
        <mxCell id="K0b4yNtIqu9R4qsapTuJ-59" value="" style="line;strokeWidth=1;fillColor=none;align=left;verticalAlign=middle;spacingTop=-1;spacingLeft=3;spacingRight=3;rotatable=0;labelPosition=right;points=[];portConstraint=eastwest;" vertex="1" parent="K0b4yNtIqu9R4qsapTuJ-57">
          <mxGeometry y="97" width="270" height="8" as="geometry" />
        </mxCell>
        <mxCell id="K0b4yNtIqu9R4qsapTuJ-60" value="" style="part=1;html=1;resizeHeight=0;strokeColor=none;fillColor=none;align=left;verticalAlign=middle;spacingLeft=4;spacingRight=4;overflow=hidden;rotatable=0;points=[[0,0.5],[1,0.5]];portConstraint=eastwest;swimlaneFillColor=#ffffff;strokeOpacity=100;whiteSpace=wrap;fontSize=13;" vertex="1" parent="K0b4yNtIqu9R4qsapTuJ-57">
          <mxGeometry y="105" width="270" height="82.25" as="geometry" />
        </mxCell>
        <UserObject label="" lucidchartObjectId="qzPBSE3JSOM0" id="K0b4yNtIqu9R4qsapTuJ-61">
          <mxCell style="html=1;jettySize=18;whiteSpace=wrap;fontSize=13;strokeColor=#3a414a;strokeOpacity=100;strokeWidth=0.8;rounded=1;arcSize=12;edgeStyle=orthogonalEdgeStyle;startArrow=none;endArrow=block;endFill=1;exitX=0.5;exitY=1.003;exitPerimeter=0;entryX=0.5;entryY=-0.003;entryPerimeter=0;" edge="1" parent="1" source="K0b4yNtIqu9R4qsapTuJ-57" target="K0b4yNtIqu9R4qsapTuJ-62">
            <mxGeometry width="100" height="100" relative="1" as="geometry">
              <Array as="points" />
            </mxGeometry>
          </mxCell>
        </UserObject>
        <mxCell id="K0b4yNtIqu9R4qsapTuJ-62" value="fmsDiagSubregionAxis_type" style="html=1;overflow=block;blockSpacing=1;swimlane;childLayout=stackLayout;horizontal=1;horizontalStack=0;resizeParent=1;resizeParentMax=0;resizeLast=0;collapsible=0;fontStyle=0;marginBottom=0;swimlaneFillColor=#ffffff;startSize=25;whiteSpace=wrap;fontSize=16.7;fontColor=#3a414a;spacing=0;strokeColor=#3a414a;strokeOpacity=100;rounded=1;absoluteArcSize=1;arcSize=9;strokeWidth=0.8;" vertex="1" parent="1">
          <mxGeometry x="3490" y="1290" width="270" height="167" as="geometry" />
        </mxCell>
        <mxCell id="K0b4yNtIqu9R4qsapTuJ-63" value="" style="part=1;html=1;resizeHeight=0;strokeColor=none;fillColor=none;align=left;verticalAlign=middle;spacingLeft=4;spacingRight=4;overflow=hidden;rotatable=0;points=[[0,0.5],[1,0.5]];portConstraint=eastwest;swimlaneFillColor=#ffffff;strokeOpacity=100;whiteSpace=wrap;fontSize=13;" vertex="1" parent="K0b4yNtIqu9R4qsapTuJ-62">
          <mxGeometry y="25" width="270" height="78" as="geometry" />
        </mxCell>
        <mxCell id="K0b4yNtIqu9R4qsapTuJ-64" value="" style="line;strokeWidth=1;fillColor=none;align=left;verticalAlign=middle;spacingTop=-1;spacingLeft=3;spacingRight=3;rotatable=0;labelPosition=right;points=[];portConstraint=eastwest;" vertex="1" parent="K0b4yNtIqu9R4qsapTuJ-62">
          <mxGeometry y="103" width="270" height="8" as="geometry" />
        </mxCell>
        <mxCell id="K0b4yNtIqu9R4qsapTuJ-65" value="" style="part=1;html=1;resizeHeight=0;strokeColor=none;fillColor=none;align=left;verticalAlign=middle;spacingLeft=4;spacingRight=4;overflow=hidden;rotatable=0;points=[[0,0.5],[1,0.5]];portConstraint=eastwest;swimlaneFillColor=#ffffff;strokeOpacity=100;whiteSpace=wrap;fontSize=13;" vertex="1" parent="K0b4yNtIqu9R4qsapTuJ-62">
          <mxGeometry y="111" width="270" height="56" as="geometry" />
        </mxCell>
        <mxCell id="K0b4yNtIqu9R4qsapTuJ-66" value="fmsDiagYamlFile_type" style="html=1;overflow=block;blockSpacing=1;swimlane;childLayout=stackLayout;horizontal=1;horizontalStack=0;resizeParent=1;resizeParentMax=0;resizeLast=0;collapsible=0;fontStyle=0;marginBottom=0;swimlaneFillColor=#ffffff;startSize=25;whiteSpace=wrap;fontSize=16.7;fontColor=#3a414a;align=left;spacing=0;strokeColor=#3a414a;strokeOpacity=100;rounded=1;absoluteArcSize=1;arcSize=9;strokeWidth=0.8;" vertex="1" parent="1">
          <mxGeometry x="1240" y="2265" width="720" height="550" as="geometry" />
        </mxCell>
        <mxCell id="K0b4yNtIqu9R4qsapTuJ-67" value="character (len=:), private, allocatable :: file_fname  &#xa;character (len=:), private, allocatable :: file_frequnit   &#xa;integer, private    :: file_freq character (len=:), private, allocatable :: file_timeunitcharacter (len=:), private, allocatable :: file_unlimdim   &#xa;type(subRegion_type), private :: file_sub_region &#xa;integer, private :: file_new_file_freq &#xa;character (len=:), private, allocatable :: file_new_file_freq_units  &#xa;character (len=:), private, allocatable :: file_start_time&#xa;integer, private :: file_duration &#xa;character (len=:), private, allocatable :: file_duration_units &#xa;character (len=MAX_STR_LEN), dimension(:), private, allocatable :: file_varlist   &#xa;character (len=MAX_STR_LEN), dimension(:,:), private, allocatable :: file_global_meta " style="part=1;html=1;resizeHeight=0;strokeColor=none;fillColor=none;align=left;verticalAlign=middle;spacingLeft=4;spacingRight=4;overflow=hidden;rotatable=0;points=[[0,0.5],[1,0.5]];portConstraint=eastwest;swimlaneFillColor=#ffffff;strokeOpacity=100;whiteSpace=wrap;fontSize=18.3;fontColor=#3a414a;" vertex="1" parent="K0b4yNtIqu9R4qsapTuJ-66">
          <mxGeometry y="25" width="720" height="325" as="geometry" />
        </mxCell>
        <mxCell id="K0b4yNtIqu9R4qsapTuJ-68" value="" style="line;strokeWidth=1;fillColor=none;align=left;verticalAlign=middle;spacingTop=-1;spacingLeft=3;spacingRight=3;rotatable=0;labelPosition=right;points=[];portConstraint=eastwest;" vertex="1" parent="K0b4yNtIqu9R4qsapTuJ-66">
          <mxGeometry y="350" width="720" height="8" as="geometry" />
        </mxCell>
        <mxCell id="K0b4yNtIqu9R4qsapTuJ-69" value="size_file_varlist()&#xa;get/has" style="part=1;html=1;resizeHeight=0;strokeColor=none;fillColor=none;align=left;verticalAlign=middle;spacingLeft=4;spacingRight=4;overflow=hidden;rotatable=0;points=[[0,0.5],[1,0.5]];portConstraint=eastwest;swimlaneFillColor=#ffffff;strokeOpacity=100;whiteSpace=wrap;fontSize=16.7;fontColor=#3a414a;" vertex="1" parent="K0b4yNtIqu9R4qsapTuJ-66">
          <mxGeometry y="358" width="720" height="192" as="geometry" />
        </mxCell>
        <mxCell id="K0b4yNtIqu9R4qsapTuJ-70" value="diagYamlFilesVar_type" style="html=1;overflow=block;blockSpacing=1;swimlane;childLayout=stackLayout;horizontal=1;horizontalStack=0;resizeParent=1;resizeParentMax=0;resizeLast=0;collapsible=0;fontStyle=0;marginBottom=0;swimlaneFillColor=#ffffff;startSize=25;whiteSpace=wrap;fontSize=16.7;fontColor=#3a414a;align=left;spacing=0;strokeColor=#3a414a;strokeOpacity=100;rounded=1;absoluteArcSize=1;arcSize=9;strokeWidth=0.8;" vertex="1" parent="1">
          <mxGeometry x="2005" y="2265" width="645" height="439.25" as="geometry" />
        </mxCell>
        <mxCell id="K0b4yNtIqu9R4qsapTuJ-71" value="character (len=:), private, allocatable :: var_fname&#xa;character (len=:), private, allocatable :: var_varname&#xa;character (len=:), private, allocatable :: var_reduction &#xa;character (len=:), private, allocatable :: var_module  &#xa;character (len=:), private, allocatable :: var_skind &#xa;character (len=:), private, allocatable :: var_outname&#xa;character (len=:), private, allocatable :: var_longname   &#xa;character (len=:), private, allocatable :: var_units &#xa;integer          , private              :: n_diurnal &#xa;integer          , private              :: pow_value character (len=MAX_STR_LEN), dimension (:, :), private, allocatable :: var_attributes " style="part=1;html=1;resizeHeight=0;strokeColor=none;fillColor=none;align=left;verticalAlign=middle;spacingLeft=4;spacingRight=4;overflow=hidden;rotatable=0;points=[[0,0.5],[1,0.5]];portConstraint=eastwest;swimlaneFillColor=#ffffff;strokeOpacity=100;whiteSpace=wrap;fontSize=16.7;fontColor=#3a414a;" vertex="1" parent="K0b4yNtIqu9R4qsapTuJ-70">
          <mxGeometry y="25" width="645" height="245" as="geometry" />
        </mxCell>
        <mxCell id="K0b4yNtIqu9R4qsapTuJ-72" value="" style="line;strokeWidth=1;fillColor=none;align=left;verticalAlign=middle;spacingTop=-1;spacingLeft=3;spacingRight=3;rotatable=0;labelPosition=right;points=[];portConstraint=eastwest;" vertex="1" parent="K0b4yNtIqu9R4qsapTuJ-70">
          <mxGeometry y="270" width="645" height="8" as="geometry" />
        </mxCell>
        <mxCell id="K0b4yNtIqu9R4qsapTuJ-73" value="get/has" style="part=1;html=1;resizeHeight=0;strokeColor=none;fillColor=none;align=left;verticalAlign=middle;spacingLeft=4;spacingRight=4;overflow=hidden;rotatable=0;points=[[0,0.5],[1,0.5]];portConstraint=eastwest;swimlaneFillColor=#ffffff;strokeOpacity=100;whiteSpace=wrap;fontSize=16.7;fontColor=#3a414a;" vertex="1" parent="K0b4yNtIqu9R4qsapTuJ-70">
          <mxGeometry y="278" width="645" height="161.25" as="geometry" />
        </mxCell>
        <mxCell id="K0b4yNtIqu9R4qsapTuJ-74" value="fmsDiagOutputYaml_type" style="html=1;overflow=block;blockSpacing=1;swimlane;childLayout=stackLayout;horizontal=1;horizontalStack=0;resizeParent=1;resizeParentMax=0;resizeLast=0;collapsible=0;fontStyle=0;marginBottom=0;swimlaneFillColor=#ffffff;startSize=25;whiteSpace=wrap;fontSize=16.7;fontColor=#3a414a;align=left;spacing=0;strokeColor=#3a414a;strokeOpacity=100;rounded=1;absoluteArcSize=1;arcSize=9;strokeWidth=0.8;" vertex="1" parent="1">
          <mxGeometry x="2710" y="2265" width="270" height="227.25" as="geometry" />
        </mxCell>
        <mxCell id="K0b4yNtIqu9R4qsapTuJ-75" value="" style="part=1;html=1;resizeHeight=0;strokeColor=none;fillColor=none;align=left;verticalAlign=middle;spacingLeft=4;spacingRight=4;overflow=hidden;rotatable=0;points=[[0,0.5],[1,0.5]];portConstraint=eastwest;swimlaneFillColor=#ffffff;strokeOpacity=100;whiteSpace=wrap;fontSize=13;" vertex="1" parent="K0b4yNtIqu9R4qsapTuJ-74">
          <mxGeometry y="25" width="270" height="92" as="geometry" />
        </mxCell>
        <mxCell id="K0b4yNtIqu9R4qsapTuJ-76" value="" style="line;strokeWidth=1;fillColor=none;align=left;verticalAlign=middle;spacingTop=-1;spacingLeft=3;spacingRight=3;rotatable=0;labelPosition=right;points=[];portConstraint=eastwest;" vertex="1" parent="K0b4yNtIqu9R4qsapTuJ-74">
          <mxGeometry y="117" width="270" height="8" as="geometry" />
        </mxCell>
        <mxCell id="K0b4yNtIqu9R4qsapTuJ-77" value="" style="part=1;html=1;resizeHeight=0;strokeColor=none;fillColor=none;align=left;verticalAlign=middle;spacingLeft=4;spacingRight=4;overflow=hidden;rotatable=0;points=[[0,0.5],[1,0.5]];portConstraint=eastwest;swimlaneFillColor=#ffffff;strokeOpacity=100;whiteSpace=wrap;fontSize=13;" vertex="1" parent="K0b4yNtIqu9R4qsapTuJ-74">
          <mxGeometry y="125" width="270" height="102.25" as="geometry" />
        </mxCell>
      </root>
    </mxGraphModel>
  </diagram>
</mxfile>
